<?xml version="1.0" encoding="UTF-8" standalone="no"?>
<svg
   xmlns:dc="http://purl.org/dc/elements/1.1/"
   xmlns:cc="http://creativecommons.org/ns#"
   xmlns:rdf="http://www.w3.org/1999/02/22-rdf-syntax-ns#"
   xmlns:svg="http://www.w3.org/2000/svg"
   xmlns="http://www.w3.org/2000/svg"
   xmlns:sodipodi="http://sodipodi.sourceforge.net/DTD/sodipodi-0.dtd"
   xmlns:inkscape="http://www.inkscape.org/namespaces/inkscape"
   width="1385.2974"
   height="694.69891"
   viewBox="0 0 1385.2973 694.69894"
   preserveAspectRatio="xMidYMid meet"
   version="1.1"
   id="svg17"
   sodipodi:docname="vector-trie-twenty-one.svg"
   inkscape:version="0.92.1 r15371">
  <metadata
     id="metadata21">
    <rdf:RDF>
      <cc:Work
         rdf:about="">
        <dc:format>image/svg+xml</dc:format>
        <dc:type
           rdf:resource="http://purl.org/dc/dcmitype/StillImage" />
        <dc:title></dc:title>
      </cc:Work>
    </rdf:RDF>
  </metadata>
  <sodipodi:namedview
     pagecolor="#ffffff"
     bordercolor="#666666"
     borderopacity="1"
     objecttolerance="10"
     gridtolerance="10"
     guidetolerance="10"
     inkscape:pageopacity="0"
     inkscape:pageshadow="2"
     inkscape:window-width="2400"
     inkscape:window-height="1424"
     id="namedview19"
     showgrid="false"
     inkscape:zoom="1.4202315"
     inkscape:cx="814.56245"
     inkscape:cy="329.18637"
     inkscape:window-x="0"
     inkscape:window-y="88"
     inkscape:window-maximized="1"
     inkscape:current-layer="svg17"
     fit-margin-top="80"
     fit-margin-left="80"
     fit-margin-right="80"
     fit-margin-bottom="80" />
  <rect
     id="svgEditorBackground"
     x="268.18805"
     y="144.69891"
     width="610"
     height="470"
     style="fill:none;stroke:none" />
  <defs
     id="svgEditorDefs">
    <marker
       inkscape:isstock="true"
       style="overflow:visible"
       id="marker4576"
       refX="0"
       refY="0"
       orient="auto"
       inkscape:stockid="Arrow1Mend">
      <path
         transform="matrix(-0.4,0,0,-0.4,-4,0)"
         style="fill:#000000;fill-opacity:1;fill-rule:evenodd;stroke:#000000;stroke-width:1.00000003pt;stroke-opacity:1"
         d="M 0,0 5,-5 -12.5,0 5,5 Z"
         id="path4574"
         inkscape:connector-curvature="0" />
    </marker>
    <marker
       inkscape:isstock="true"
       style="overflow:visible"
       id="marker4380"
       refX="0"
       refY="0"
       orient="auto"
       inkscape:stockid="DotM">
      <path
         transform="matrix(0.4,0,0,0.4,2.96,0.4)"
         style="fill:#000000;fill-opacity:1;fill-rule:evenodd;stroke:#000000;stroke-width:1.00000003pt;stroke-opacity:1"
         d="m -2.5,-1 c 0,2.76 -2.24,5 -5,5 -2.76,0 -5,-2.24 -5,-5 0,-2.76 2.24,-5 5,-5 2.76,0 5,2.24 5,5 z"
         id="path4378"
         inkscape:connector-curvature="0" />
    </marker>
    <marker
       inkscape:isstock="true"
       style="overflow:visible"
       id="marker3997"
       refX="0"
       refY="0"
       orient="auto"
       inkscape:stockid="Arrow1Mend">
      <path
         transform="matrix(-0.4,0,0,-0.4,-4,0)"
         style="fill:#000000;fill-opacity:1;fill-rule:evenodd;stroke:#000000;stroke-width:1.00000003pt;stroke-opacity:1"
         d="M 0,0 5,-5 -12.5,0 5,5 Z"
         id="path3995"
         inkscape:connector-curvature="0" />
    </marker>
    <marker
       inkscape:isstock="true"
       style="overflow:visible"
       id="marker3825"
       refX="0"
       refY="0"
       orient="auto"
       inkscape:stockid="DotM">
      <path
         transform="matrix(0.4,0,0,0.4,2.96,0.4)"
         style="fill:#000000;fill-opacity:1;fill-rule:evenodd;stroke:#000000;stroke-width:1.00000003pt;stroke-opacity:1"
         d="m -2.5,-1 c 0,2.76 -2.24,5 -5,5 -2.76,0 -5,-2.24 -5,-5 0,-2.76 2.24,-5 5,-5 2.76,0 5,2.24 5,5 z"
         id="path3823"
         inkscape:connector-curvature="0" />
    </marker>
    <marker
       inkscape:isstock="true"
       style="overflow:visible"
       id="marker3490"
       refX="0"
       refY="0"
       orient="auto"
       inkscape:stockid="Arrow1Mend">
      <path
         transform="matrix(-0.4,0,0,-0.4,-4,0)"
         style="fill:#000000;fill-opacity:1;fill-rule:evenodd;stroke:#000000;stroke-width:1.00000003pt;stroke-opacity:1"
         d="M 0,0 5,-5 -12.5,0 5,5 Z"
         id="path3488"
         inkscape:connector-curvature="0" />
    </marker>
    <marker
       inkscape:isstock="true"
       style="overflow:visible"
       id="marker3342"
       refX="0"
       refY="0"
       orient="auto"
       inkscape:stockid="DotM">
      <path
         transform="matrix(0.4,0,0,0.4,2.96,0.4)"
         style="fill:#000000;fill-opacity:1;fill-rule:evenodd;stroke:#000000;stroke-width:1.00000003pt;stroke-opacity:1"
         d="m -2.5,-1 c 0,2.76 -2.24,5 -5,5 -2.76,0 -5,-2.24 -5,-5 0,-2.76 2.24,-5 5,-5 2.76,0 5,2.24 5,5 z"
         id="path3340"
         inkscape:connector-curvature="0" />
    </marker>
    <marker
       inkscape:isstock="true"
       style="overflow:visible"
       id="marker3055"
       refX="0"
       refY="0"
       orient="auto"
       inkscape:stockid="Arrow1Mend">
      <path
         transform="matrix(-0.4,0,0,-0.4,-4,0)"
         style="fill:#000000;fill-opacity:1;fill-rule:evenodd;stroke:#000000;stroke-width:1.00000003pt;stroke-opacity:1"
         d="M 0,0 5,-5 -12.5,0 5,5 Z"
         id="path3053"
         inkscape:connector-curvature="0" />
    </marker>
    <marker
       inkscape:isstock="true"
       style="overflow:visible"
       id="marker2931"
       refX="0"
       refY="0"
       orient="auto"
       inkscape:stockid="DotM">
      <path
         transform="matrix(0.4,0,0,0.4,2.96,0.4)"
         style="fill:#000000;fill-opacity:1;fill-rule:evenodd;stroke:#000000;stroke-width:1.00000003pt;stroke-opacity:1"
         d="m -2.5,-1 c 0,2.76 -2.24,5 -5,5 -2.76,0 -5,-2.24 -5,-5 0,-2.76 2.24,-5 5,-5 2.76,0 5,2.24 5,5 z"
         id="path2929"
         inkscape:connector-curvature="0" />
    </marker>
    <marker
       inkscape:isstock="true"
       style="overflow:visible"
       id="marker2692"
       refX="0"
       refY="0"
       orient="auto"
       inkscape:stockid="Arrow1Mend">
      <path
         transform="matrix(-0.4,0,0,-0.4,-4,0)"
         style="fill:#000000;fill-opacity:1;fill-rule:evenodd;stroke:#000000;stroke-width:1.00000003pt;stroke-opacity:1"
         d="M 0,0 5,-5 -12.5,0 5,5 Z"
         id="path2690"
         inkscape:connector-curvature="0" />
    </marker>
    <marker
       inkscape:isstock="true"
       style="overflow:visible"
       id="marker2592"
       refX="0"
       refY="0"
       orient="auto"
       inkscape:stockid="DotM">
      <path
         transform="matrix(0.4,0,0,0.4,2.96,0.4)"
         style="fill:#000000;fill-opacity:1;fill-rule:evenodd;stroke:#000000;stroke-width:1.00000003pt;stroke-opacity:1"
         d="m -2.5,-1 c 0,2.76 -2.24,5 -5,5 -2.76,0 -5,-2.24 -5,-5 0,-2.76 2.24,-5 5,-5 2.76,0 5,2.24 5,5 z"
         id="path2590"
         inkscape:connector-curvature="0" />
    </marker>
    <marker
       inkscape:isstock="true"
       style="overflow:visible"
       id="marker2401"
       refX="0"
       refY="0"
       orient="auto"
       inkscape:stockid="Arrow1Mend">
      <path
         transform="matrix(-0.4,0,0,-0.4,-4,0)"
         style="fill:#000000;fill-opacity:1;fill-rule:evenodd;stroke:#000000;stroke-width:1.00000003pt;stroke-opacity:1"
         d="M 0,0 5,-5 -12.5,0 5,5 Z"
         id="path2399"
         inkscape:connector-curvature="0" />
    </marker>
    <marker
       inkscape:isstock="true"
       style="overflow:visible"
       id="marker2325"
       refX="0"
       refY="0"
       orient="auto"
       inkscape:stockid="DotM">
      <path
         transform="matrix(0.4,0,0,0.4,2.96,0.4)"
         style="fill:#000000;fill-opacity:1;fill-rule:evenodd;stroke:#000000;stroke-width:1.00000003pt;stroke-opacity:1"
         d="m -2.5,-1 c 0,2.76 -2.24,5 -5,5 -2.76,0 -5,-2.24 -5,-5 0,-2.76 2.24,-5 5,-5 2.76,0 5,2.24 5,5 z"
         id="path2323"
         inkscape:connector-curvature="0" />
    </marker>
    <marker
       inkscape:isstock="true"
       style="overflow:visible"
       id="marker2182"
       refX="0"
       refY="0"
       orient="auto"
       inkscape:stockid="Arrow1Mend">
      <path
         transform="matrix(-0.4,0,0,-0.4,-4,0)"
         style="fill:#000000;fill-opacity:1;fill-rule:evenodd;stroke:#000000;stroke-width:1.00000003pt;stroke-opacity:1"
         d="M 0,0 5,-5 -12.5,0 5,5 Z"
         id="path2180"
         inkscape:connector-curvature="0" />
    </marker>
    <marker
       inkscape:isstock="true"
       style="overflow:visible"
       id="marker2130"
       refX="0"
       refY="0"
       orient="auto"
       inkscape:stockid="DotM">
      <path
         transform="matrix(0.4,0,0,0.4,2.96,0.4)"
         style="fill:#000000;fill-opacity:1;fill-rule:evenodd;stroke:#000000;stroke-width:1.00000003pt;stroke-opacity:1"
         d="m -2.5,-1 c 0,2.76 -2.24,5 -5,5 -2.76,0 -5,-2.24 -5,-5 0,-2.76 2.24,-5 5,-5 2.76,0 5,2.24 5,5 z"
         id="path2128"
         inkscape:connector-curvature="0" />
    </marker>
    <marker
       id="arrow15-12-left"
       markerHeight="12"
       markerUnits="strokeWidth"
       markerWidth="15"
       orient="auto"
       refX="3"
       refY="0"
       viewBox="0 -5 20 20">
      <path
         d="M 15,-5 0,0 15,5 Z"
         id="path3"
         inkscape:connector-curvature="0"
         style="fill:#000000" />
    </marker>
    <marker
       id="circle8"
       markerHeight="8"
       markerUnits="strokeWidth"
       markerWidth="8"
       orient="auto"
       refX="0"
       refY="0"
       viewBox="-5 -5 10 10">
      <circle
         cx="0"
         cy="0"
         r="5"
         id="circle6"
         style="fill:#000000" />
    </marker>
    <marker
       inkscape:stockid="DotM"
       orient="auto"
       refY="0"
       refX="0"
       id="marker7253"
       style="overflow:visible"
       inkscape:isstock="true"
       inkscape:collect="always">
      <path
         inkscape:connector-curvature="0"
         id="path7251"
         d="m -2.5,-1 c 0,2.76 -2.24,5 -5,5 -2.76,0 -5,-2.24 -5,-5 0,-2.76 2.24,-5 5,-5 2.76,0 5,2.24 5,5 z"
         style="fill:#000000;fill-opacity:1;fill-rule:evenodd;stroke:#000000;stroke-width:1.00000003pt;stroke-opacity:1"
         transform="matrix(0.4,0,0,0.4,2.96,0.4)" />
    </marker>
    <marker
       inkscape:stockid="Arrow1Mend"
       orient="auto"
       refY="0"
       refX="0"
       id="marker7443"
       style="overflow:visible"
       inkscape:isstock="true"
       inkscape:collect="always">
      <path
         inkscape:connector-curvature="0"
         id="path7441"
         d="M 0,0 5,-5 -12.5,0 5,5 Z"
         style="fill:#000000;fill-opacity:1;fill-rule:evenodd;stroke:#000000;stroke-width:1.00000003pt;stroke-opacity:1"
         transform="matrix(-0.4,0,0,-0.4,-4,0)" />
    </marker>
    <marker
       inkscape:stockid="DotM"
       orient="auto"
       refY="0"
       refX="0"
       id="marker7253-7"
       style="overflow:visible"
       inkscape:isstock="true">
      <path
         inkscape:connector-curvature="0"
         id="path7251-8"
         d="m -2.5,-1 c 0,2.76 -2.24,5 -5,5 -2.76,0 -5,-2.24 -5,-5 0,-2.76 2.24,-5 5,-5 2.76,0 5,2.24 5,5 z"
         style="fill:#000000;fill-opacity:1;fill-rule:evenodd;stroke:#000000;stroke-width:1.00000003pt;stroke-opacity:1"
         transform="matrix(0.4,0,0,0.4,2.96,0.4)" />
    </marker>
    <marker
       inkscape:stockid="Arrow1Mend"
       orient="auto"
       refY="0"
       refX="0"
       id="marker7443-4"
       style="overflow:visible"
       inkscape:isstock="true">
      <path
         inkscape:connector-curvature="0"
         id="path7441-5"
         d="M 0,0 5,-5 -12.5,0 5,5 Z"
         style="fill:#000000;fill-opacity:1;fill-rule:evenodd;stroke:#000000;stroke-width:1.00000003pt;stroke-opacity:1"
         transform="matrix(-0.4,0,0,-0.4,-4,0)" />
    </marker>
    <marker
       inkscape:stockid="DotM"
       orient="auto"
       refY="0"
       refX="0"
       id="marker7253-0"
       style="overflow:visible"
       inkscape:isstock="true">
      <path
         inkscape:connector-curvature="0"
         id="path7251-3"
         d="m -2.5,-1 c 0,2.76 -2.24,5 -5,5 -2.76,0 -5,-2.24 -5,-5 0,-2.76 2.24,-5 5,-5 2.76,0 5,2.24 5,5 z"
         style="fill:#000000;fill-opacity:1;fill-rule:evenodd;stroke:#000000;stroke-width:1.00000003pt;stroke-opacity:1"
         transform="matrix(0.4,0,0,0.4,2.96,0.4)" />
    </marker>
    <marker
       inkscape:stockid="Arrow1Mend"
       orient="auto"
       refY="0"
       refX="0"
       id="marker7443-6"
       style="overflow:visible"
       inkscape:isstock="true">
      <path
         inkscape:connector-curvature="0"
         id="path7441-1"
         d="M 0,0 5,-5 -12.5,0 5,5 Z"
         style="fill:#000000;fill-opacity:1;fill-rule:evenodd;stroke:#000000;stroke-width:1.00000003pt;stroke-opacity:1"
         transform="matrix(-0.4,0,0,-0.4,-4,0)" />
    </marker>
    <marker
       inkscape:stockid="DotM"
       orient="auto"
       refY="0"
       refX="0"
       id="marker7253-06"
       style="overflow:visible"
       inkscape:isstock="true">
      <path
         inkscape:connector-curvature="0"
         id="path7251-32"
         d="m -2.5,-1 c 0,2.76 -2.24,5 -5,5 -2.76,0 -5,-2.24 -5,-5 0,-2.76 2.24,-5 5,-5 2.76,0 5,2.24 5,5 z"
         style="fill:#000000;fill-opacity:1;fill-rule:evenodd;stroke:#000000;stroke-width:1.00000003pt;stroke-opacity:1"
         transform="matrix(0.4,0,0,0.4,2.96,0.4)" />
    </marker>
    <marker
       inkscape:stockid="Arrow1Mend"
       orient="auto"
       refY="0"
       refX="0"
       id="marker7443-0"
       style="overflow:visible"
       inkscape:isstock="true">
      <path
         inkscape:connector-curvature="0"
         id="path7441-6"
         d="M 0,0 5,-5 -12.5,0 5,5 Z"
         style="fill:#000000;fill-opacity:1;fill-rule:evenodd;stroke:#000000;stroke-width:1.00000003pt;stroke-opacity:1"
         transform="matrix(-0.4,0,0,-0.4,-4,0)" />
    </marker>
    <marker
       inkscape:stockid="DotM"
       orient="auto"
       refY="0"
       refX="0"
       id="marker7253-1"
       style="overflow:visible"
       inkscape:isstock="true">
      <path
         inkscape:connector-curvature="0"
         id="path7251-5"
         d="m -2.5,-1 c 0,2.76 -2.24,5 -5,5 -2.76,0 -5,-2.24 -5,-5 0,-2.76 2.24,-5 5,-5 2.76,0 5,2.24 5,5 z"
         style="fill:#000000;fill-opacity:1;fill-rule:evenodd;stroke:#000000;stroke-width:1.00000003pt;stroke-opacity:1"
         transform="matrix(0.4,0,0,0.4,2.96,0.4)" />
    </marker>
    <marker
       inkscape:stockid="Arrow1Mend"
       orient="auto"
       refY="0"
       refX="0"
       id="marker7443-5"
       style="overflow:visible"
       inkscape:isstock="true">
      <path
         inkscape:connector-curvature="0"
         id="path7441-4"
         d="M 0,0 5,-5 -12.5,0 5,5 Z"
         style="fill:#000000;fill-opacity:1;fill-rule:evenodd;stroke:#000000;stroke-width:1.00000003pt;stroke-opacity:1"
         transform="matrix(-0.4,0,0,-0.4,-4,0)" />
    </marker>
    <marker
       inkscape:stockid="DotM"
       orient="auto"
       refY="0"
       refX="0"
       id="marker7253-76"
       style="overflow:visible"
       inkscape:isstock="true">
      <path
         inkscape:connector-curvature="0"
         id="path7251-56"
         d="m -2.5,-1 c 0,2.76 -2.24,5 -5,5 -2.76,0 -5,-2.24 -5,-5 0,-2.76 2.24,-5 5,-5 2.76,0 5,2.24 5,5 z"
         style="fill:#000000;fill-opacity:1;fill-rule:evenodd;stroke:#000000;stroke-width:1.00000003pt;stroke-opacity:1"
         transform="matrix(0.4,0,0,0.4,2.96,0.4)" />
    </marker>
    <marker
       inkscape:stockid="Arrow1Mend"
       orient="auto"
       refY="0"
       refX="0"
       id="marker7443-9"
       style="overflow:visible"
       inkscape:isstock="true">
      <path
         inkscape:connector-curvature="0"
         id="path7441-3"
         d="M 0,0 5,-5 -12.5,0 5,5 Z"
         style="fill:#000000;fill-opacity:1;fill-rule:evenodd;stroke:#000000;stroke-width:1.00000003pt;stroke-opacity:1"
         transform="matrix(-0.4,0,0,-0.4,-4,0)" />
    </marker>
    <marker
       inkscape:stockid="DotM"
       orient="auto"
       refY="0"
       refX="0"
       id="marker7253-74"
       style="overflow:visible"
       inkscape:isstock="true">
      <path
         inkscape:connector-curvature="0"
         id="path7251-52"
         d="m -2.5,-1 c 0,2.76 -2.24,5 -5,5 -2.76,0 -5,-2.24 -5,-5 0,-2.76 2.24,-5 5,-5 2.76,0 5,2.24 5,5 z"
         style="fill:#000000;fill-opacity:1;fill-rule:evenodd;stroke:#000000;stroke-width:1.00000003pt;stroke-opacity:1"
         transform="matrix(0.4,0,0,0.4,2.96,0.4)" />
    </marker>
    <marker
       inkscape:stockid="Arrow1Mend"
       orient="auto"
       refY="0"
       refX="0"
       id="marker7443-54"
       style="overflow:visible"
       inkscape:isstock="true">
      <path
         inkscape:connector-curvature="0"
         id="path7441-7"
         d="M 0,0 5,-5 -12.5,0 5,5 Z"
         style="fill:#000000;fill-opacity:1;fill-rule:evenodd;stroke:#000000;stroke-width:1.00000003pt;stroke-opacity:1"
         transform="matrix(-0.4,0,0,-0.4,-4,0)" />
    </marker>
    <marker
       inkscape:stockid="DotM"
       orient="auto"
       refY="0"
       refX="0"
       id="marker7253-4"
       style="overflow:visible"
       inkscape:isstock="true">
      <path
         inkscape:connector-curvature="0"
         id="path7251-4"
         d="m -2.5,-1 c 0,2.76 -2.24,5 -5,5 -2.76,0 -5,-2.24 -5,-5 0,-2.76 2.24,-5 5,-5 2.76,0 5,2.24 5,5 z"
         style="fill:#000000;fill-opacity:1;fill-rule:evenodd;stroke:#000000;stroke-width:1.00000003pt;stroke-opacity:1"
         transform="matrix(0.4,0,0,0.4,2.96,0.4)" />
    </marker>
    <marker
       inkscape:stockid="Arrow1Mend"
       orient="auto"
       refY="0"
       refX="0"
       id="marker7443-3"
       style="overflow:visible"
       inkscape:isstock="true">
      <path
         inkscape:connector-curvature="0"
         id="path7441-0"
         d="M 0,0 5,-5 -12.5,0 5,5 Z"
         style="fill:#000000;fill-opacity:1;fill-rule:evenodd;stroke:#000000;stroke-width:1.00000003pt;stroke-opacity:1"
         transform="matrix(-0.4,0,0,-0.4,-4,0)" />
    </marker>
  </defs>
  <text
     xml:space="preserve"
     style="font-style:normal;font-variant:normal;font-weight:normal;font-stretch:normal;font-size:40px;line-height:1.25;font-family:'Comic Sans MS';-inkscape-font-specification:'Comic Sans MS';letter-spacing:0px;word-spacing:0px;fill:#000000;fill-opacity:1;stroke:none"
     x="534.34418"
     y="353.43484"
     id="text61"><tspan
       sodipodi:role="line"
       id="tspan59"
       x="534.34418"
       y="387.75027" /></text>
  <text
     xml:space="preserve"
     style="font-style:normal;font-variant:normal;font-weight:normal;font-stretch:normal;font-size:40px;line-height:1.25;font-family:'Comic Sans MS';-inkscape-font-specification:'Comic Sans MS';letter-spacing:0px;word-spacing:0px;fill:#000000;fill-opacity:1;stroke:none"
     x="619.9798"
     y="350.44757"
     id="text65"><tspan
       sodipodi:role="line"
       id="tspan63"
       x="619.9798"
       y="384.763" /></text>
  <g
     id="g883"
     transform="translate(316.77004,162.21876)">
    <rect
       height="79.956139"
       width="37.146812"
       id="e1_rectangle"
       style="fill:#f0e68c;stroke:#000000;stroke-width:2.04386353px"
       y="81.021935"
       x="81.021935" />
    <rect
       height="79.956139"
       width="37.146812"
       id="e1_rectangle-3"
       style="fill:#f0e68c;stroke:#000000;stroke-width:2.04386353px"
       y="81.021935"
       x="118.16875" />
    <rect
       height="79.956139"
       width="37.146812"
       id="e1_rectangle-6"
       style="fill:#f0e68c;stroke:#000000;stroke-width:2.04386353px"
       y="81.021942"
       x="155.31555" />
    <rect
       height="79.956139"
       width="37.146812"
       id="e1_rectangle-7"
       style="fill:#f0e68c;stroke:#000000;stroke-width:2.04386353px"
       y="81.021942"
       x="192.46237" />
  </g>
  <g
     id="g1105"
     transform="translate(333.698,164.21029)">
    <rect
       height="79.956139"
       width="37.146812"
       id="e1_rectangle-35"
       style="fill:#f0e68c;stroke:#000000;stroke-width:2.04386353px"
       y="79.030426"
       x="567.17279" />
    <rect
       height="79.956139"
       width="37.146812"
       id="e1_rectangle-3-6"
       style="fill:#f0e68c;stroke:#000000;stroke-width:2.04386353px"
       y="79.030426"
       x="604.31958" />
  </g>
  <g
     transform="translate(147.5138,349.51278)"
     id="g883-5-1">
    <rect
       height="79.956139"
       width="37.146812"
       id="e1_rectangle-35-2"
       style="fill:#f0e68c;stroke:#000000;stroke-width:2.04386353px"
       y="81.021935"
       x="81.021935" />
    <rect
       height="79.956139"
       width="37.146812"
       id="e1_rectangle-3-6-7"
       style="fill:#f0e68c;stroke:#000000;stroke-width:2.04386353px"
       y="81.021935"
       x="118.16875" />
    <rect
       height="79.956139"
       width="37.146812"
       id="e1_rectangle-6-2-0"
       style="fill:#f0e68c;stroke:#000000;stroke-width:2.04386353px"
       y="81.021942"
       x="155.31555" />
    <rect
       height="79.956139"
       width="37.146812"
       id="e1_rectangle-7-9-9"
       style="fill:#f0e68c;stroke:#000000;stroke-width:2.04386353px"
       y="81.021942"
       x="192.46237" />
  </g>
  <g
     transform="translate(329.95699,349.5128)"
     id="g883-5-1-3">
    <rect
       height="79.956139"
       width="37.146812"
       id="e1_rectangle-35-2-6"
       style="fill:#f0e68c;stroke:#000000;stroke-width:2.04386353px"
       y="81.021935"
       x="81.021935" />
    <rect
       height="79.956139"
       width="37.146812"
       id="e1_rectangle-3-6-7-0"
       style="fill:#f0e68c;stroke:#000000;stroke-width:2.04386353px"
       y="81.021935"
       x="118.16875" />
    <rect
       height="79.956139"
       width="37.146812"
       id="e1_rectangle-6-2-0-6"
       style="fill:#f0e68c;stroke:#000000;stroke-width:2.04386353px"
       y="81.021942"
       x="155.31555" />
    <rect
       height="79.956139"
       width="37.146812"
       id="e1_rectangle-7-9-9-2"
       style="fill:#f0e68c;stroke:#000000;stroke-width:2.04386353px"
       y="81.021942"
       x="192.46237" />
  </g>
  <g
     transform="translate(513.39595,349.51282)"
     id="g883-5-1-3-6">
    <rect
       height="79.956139"
       width="37.146812"
       id="e1_rectangle-35-2-6-1"
       style="fill:#f0e68c;stroke:#000000;stroke-width:2.04386353px"
       y="81.021935"
       x="81.021935" />
    <rect
       height="79.956139"
       width="37.146812"
       id="e1_rectangle-3-6-7-0-8"
       style="fill:#f0e68c;stroke:#000000;stroke-width:2.04386353px"
       y="81.021935"
       x="118.16875" />
    <rect
       height="79.956139"
       width="37.146812"
       id="e1_rectangle-6-2-0-6-7"
       style="fill:#f0e68c;stroke:#000000;stroke-width:2.04386353px"
       y="81.021942"
       x="155.31555" />
    <rect
       height="79.956139"
       width="37.146812"
       id="e1_rectangle-7-9-9-2-9"
       style="fill:#f0e68c;stroke:#000000;stroke-width:2.04386353px"
       y="81.021942"
       x="192.46237" />
  </g>
  <g
     transform="translate(697.83067,349.51283)"
     id="g883-5-1-3-2">
    <rect
       height="79.956139"
       width="37.146812"
       id="e1_rectangle-35-2-6-0"
       style="fill:#f0e68c;stroke:#000000;stroke-width:2.04386353px"
       y="81.021935"
       x="81.021935" />
    <rect
       height="79.956139"
       width="37.146812"
       id="e1_rectangle-3-6-7-0-2"
       style="fill:#f0e68c;stroke:#000000;stroke-width:2.04386353px"
       y="81.021935"
       x="118.16875" />
    <rect
       height="79.956139"
       width="37.146812"
       id="e1_rectangle-6-2-0-6-3"
       style="fill:#f0e68c;stroke:#000000;stroke-width:2.04386353px"
       y="81.021942"
       x="155.31555" />
    <rect
       height="79.956139"
       width="37.146812"
       id="e1_rectangle-7-9-9-2-7"
       style="fill:#f0e68c;stroke:#000000;stroke-width:2.04386353px"
       y="81.021942"
       x="192.46237" />
  </g>
  <g
     transform="translate(887.2442,349.51285)"
     id="g883-5-1-3-2-5">
    <rect
       height="79.956139"
       width="37.146812"
       id="e1_rectangle-35-2-6-0-9"
       style="fill:#f0e68c;stroke:#000000;stroke-width:2.04386353px"
       y="81.021935"
       x="81.021935" />
    <rect
       height="79.956139"
       width="37.146812"
       id="e1_rectangle-3-6-7-0-2-2"
       style="fill:#f0e68c;stroke:#000000;stroke-width:2.04386353px"
       y="81.021935"
       x="118.16875" />
    <rect
       height="79.956139"
       width="37.146812"
       id="e1_rectangle-6-2-0-6-3-2"
       style="fill:#f0e68c;stroke:#000000;stroke-width:2.04386353px"
       y="81.021942"
       x="155.31555" />
    <rect
       height="79.956139"
       width="37.146812"
       id="e1_rectangle-7-9-9-2-7-8"
       style="fill:#f0e68c;stroke:#000000;stroke-width:2.04386353px"
       y="81.021942"
       x="192.46237" />
  </g>
  <rect
     x="1155.6881"
     y="430.53479"
     style="fill:#f0e68c;stroke:#000000;stroke-width:2.04386353px"
     id="e1_rectangle-6-2-0-6-3-6"
     width="37.146812"
     height="79.956139" />
  <g
     id="g1085"
     transform="translate(333.698,164.21029)">
    <rect
       height="79.956139"
       width="37.146812"
       id="e1_rectangle-9"
       style="fill:#f0e68c;stroke:#000000;stroke-width:2.04386353px"
       y="-83.188293"
       x="309.07501" />
    <rect
       height="79.956139"
       width="37.146812"
       id="e1_rectangle-3-3"
       style="fill:#f0e68c;stroke:#000000;stroke-width:2.04386353px"
       y="-83.188293"
       x="346.22183" />
  </g>
  <path
     style="opacity:1;vector-effect:none;fill:none;fill-opacity:1;stroke:#000000;stroke-width:4;stroke-linecap:butt;stroke-linejoin:miter;stroke-miterlimit:4;stroke-dasharray:none;stroke-dashoffset:0;stroke-opacity:1;marker-start:url(#marker7253);marker-end:url(#marker7443)"
     d="M 662.2997,160.83057 472.08559,243.24069"
     id="path1087"
     inkscape:connector-curvature="0" />
  <path
     style="opacity:1;vector-effect:none;fill:none;fill-opacity:1;stroke:#000000;stroke-width:4;stroke-linecap:butt;stroke-linejoin:miter;stroke-miterlimit:4;stroke-dasharray:none;stroke-dashoffset:0;stroke-opacity:1;marker-start:url(#marker2325);marker-end:url(#marker2401)"
     d="M 414.35478,323.1399 302.82935,430.53471"
     id="path1091"
     inkscape:connector-curvature="0" />
  <path
     style="opacity:1;vector-effect:none;fill:none;fill-opacity:1;stroke:#000000;stroke-width:4;stroke-linecap:butt;stroke-linejoin:miter;stroke-miterlimit:4;stroke-dasharray:none;stroke-dashoffset:0;stroke-opacity:1;marker-start:url(#marker2592);marker-end:url(#marker2692)"
     d="m 454.18529,322.14414 31.08725,108.3906"
     id="path1093"
     inkscape:connector-curvature="0" />
  <path
     style="opacity:1;vector-effect:none;fill:none;fill-opacity:1;stroke:#000000;stroke-width:4;stroke-linecap:butt;stroke-linejoin:miter;stroke-miterlimit:4;stroke-dasharray:none;stroke-dashoffset:0;stroke-opacity:1;marker-start:url(#marker2931);marker-end:url(#marker3055)"
     d="M 491.02851,323.1399 668.7115,430.53476"
     id="path1095"
     inkscape:connector-curvature="0" />
  <path
     style="opacity:1;vector-effect:none;fill:none;fill-opacity:1;stroke:#000000;stroke-width:4;stroke-linecap:butt;stroke-linejoin:miter;stroke-miterlimit:4;stroke-dasharray:none;stroke-dashoffset:0;stroke-opacity:1;marker-start:url(#marker3342);marker-end:url(#marker3490)"
     d="m 530.85902,323.1399 322.2872,107.39487"
     id="path1097"
     inkscape:connector-curvature="0" />
  <path
     style="opacity:1;vector-effect:none;fill:none;fill-opacity:1;stroke:#000000;stroke-width:4;stroke-linecap:butt;stroke-linejoin:miter;stroke-miterlimit:4;stroke-dasharray:none;stroke-dashoffset:0;stroke-opacity:1;marker-start:url(#marker2130);marker-end:url(#marker2182)"
     d="m 698.14716,161.82633 239.87042,81.41438"
     id="path1107"
     inkscape:connector-curvature="0" />
  <path
     style="opacity:1;vector-effect:none;fill:none;fill-opacity:1;stroke:#000000;stroke-width:4;stroke-linecap:butt;stroke-linejoin:miter;stroke-miterlimit:4;stroke-dasharray:none;stroke-dashoffset:0;stroke-opacity:1;marker-start:url(#marker3825);marker-end:url(#marker3997)"
     d="M 920.20225,322.14414 1042.5598,430.53479"
     id="path1109"
     inkscape:connector-curvature="0" />
  <path
     style="opacity:1;vector-effect:none;fill:none;fill-opacity:1;stroke:#000000;stroke-width:4;stroke-linecap:butt;stroke-linejoin:miter;stroke-miterlimit:4;stroke-dasharray:none;stroke-dashoffset:0;stroke-opacity:1;marker-start:url(#marker4380);marker-end:url(#marker4576)"
     d="M 957.04547,323.1399 1175.1175,428.69075"
     id="path1111"
     inkscape:connector-curvature="0" />
  <text
     xml:space="preserve"
     style="font-style:normal;font-variant:normal;font-weight:normal;font-stretch:normal;font-size:40px;line-height:1.25;font-family:'Comic Sans MS';-inkscape-font-specification:'Comic Sans MS';letter-spacing:0px;word-spacing:0px;fill:#000000;fill-opacity:1;stroke:none"
     x="234.82352"
     y="551.06036"
     id="text4814"><tspan
       sodipodi:role="line"
       id="tspan4812"
       x="234.82352"
       y="551.06036">0</tspan></text>
  <text
     xml:space="preserve"
     style="font-style:normal;font-variant:normal;font-weight:normal;font-stretch:normal;font-size:40px;line-height:1.25;font-family:'Comic Sans MS';-inkscape-font-specification:'Comic Sans MS';letter-spacing:0px;word-spacing:0px;fill:#000000;fill-opacity:1;stroke:none"
     x="1151.5754"
     y="552.46857"
     id="text4818"><tspan
       sodipodi:role="line"
       id="tspan4816"
       x="1151.5754"
       y="552.46857">20</tspan></text>
  <text
     xml:space="preserve"
     style="font-style:normal;font-variant:normal;font-weight:normal;font-stretch:normal;font-size:40px;line-height:1.25;font-family:'Comic Sans MS';-inkscape-font-specification:'Comic Sans MS';letter-spacing:0px;word-spacing:0px;fill:#000000;fill-opacity:1;stroke:none"
     x="413.6676"
     y="549.65216"
     id="text4822"><tspan
       sodipodi:role="line"
       id="tspan4820"
       x="413.6676"
       y="549.65216">4</tspan></text>
  <text
     xml:space="preserve"
     style="font-style:normal;font-variant:normal;font-weight:normal;font-stretch:normal;font-size:40px;line-height:1.25;font-family:'Comic Sans MS';-inkscape-font-specification:'Comic Sans MS';letter-spacing:0px;word-spacing:0px;fill:#000000;fill-opacity:1;stroke:none"
     x="600.961"
     y="551.06036"
     id="text4826"><tspan
       sodipodi:role="line"
       id="tspan4824"
       x="600.961"
       y="551.06036">8</tspan></text>
  <text
     xml:space="preserve"
     style="font-style:normal;font-variant:normal;font-weight:normal;font-stretch:normal;font-size:40px;line-height:1.25;font-family:'Comic Sans MS';-inkscape-font-specification:'Comic Sans MS';letter-spacing:0px;word-spacing:0px;fill:#000000;fill-opacity:1;stroke:none"
     x="776.98865"
     y="552.46863"
     id="text4830"><tspan
       sodipodi:role="line"
       id="tspan4828"
       x="776.98865"
       y="552.46863">12</tspan></text>
  <text
     xml:space="preserve"
     style="font-style:normal;font-variant:normal;font-weight:normal;font-stretch:normal;font-size:40px;line-height:1.25;font-family:'Comic Sans MS';-inkscape-font-specification:'Comic Sans MS';letter-spacing:0px;word-spacing:0px;fill:#000000;fill-opacity:1;stroke:none"
     x="967.09851"
     y="552.46863"
     id="text4834"><tspan
       sodipodi:role="line"
       id="tspan4832"
       x="967.09851"
       y="552.46863">16</tspan></text>
  <text
     xml:space="preserve"
     style="font-style:normal;font-variant:normal;font-weight:normal;font-stretch:normal;font-size:40px;line-height:1.25;font-family:'Comic Sans MS';-inkscape-font-specification:'Comic Sans MS';letter-spacing:0px;word-spacing:0px;fill:#000000;fill-opacity:1;stroke:none"
     x="643.20764"
     y="213.08728"
     id="text4838"><tspan
       sodipodi:role="line"
       id="tspan4836"
       x="643.20764"
       y="213.08728">0</tspan></text>
  <text
     xml:space="preserve"
     style="font-style:normal;font-variant:normal;font-weight:normal;font-stretch:normal;font-size:40px;line-height:1.25;font-family:'Comic Sans MS';-inkscape-font-specification:'Comic Sans MS';letter-spacing:0px;word-spacing:0px;fill:#000000;fill-opacity:1;stroke:none"
     x="682.63782"
     y="213.08728"
     id="text4842"><tspan
       sodipodi:role="line"
       id="tspan4840"
       x="682.63782"
       y="213.08728">16</tspan></text>
  <text
     xml:space="preserve"
     style="font-style:normal;font-variant:normal;font-weight:normal;font-stretch:normal;font-size:40px;line-height:1.25;font-family:'Comic Sans MS';-inkscape-font-specification:'Comic Sans MS';letter-spacing:0px;word-spacing:0px;fill:#000000;fill-opacity:1;stroke:none"
     x="406.6265"
     y="291.94766"
     id="text4846"><tspan
       sodipodi:role="line"
       id="tspan4844"
       x="406.6265"
       y="326.26309" /></text>
  <text
     xml:space="preserve"
     style="font-style:normal;font-variant:normal;font-weight:normal;font-stretch:normal;font-size:40px;line-height:1.25;font-family:'Comic Sans MS';-inkscape-font-specification:'Comic Sans MS';letter-spacing:0px;word-spacing:0px;fill:#000000;fill-opacity:1;stroke:none"
     x="402.40182"
     y="370.80804"
     id="text4862"><tspan
       sodipodi:role="line"
       id="tspan4860"
       x="402.40182"
       y="370.80804">0</tspan></text>
  <text
     xml:space="preserve"
     style="font-style:normal;font-variant:normal;font-weight:normal;font-stretch:normal;font-size:40px;line-height:1.25;font-family:'Comic Sans MS';-inkscape-font-specification:'Comic Sans MS';letter-spacing:0px;word-spacing:0px;fill:#000000;fill-opacity:1;stroke:none"
     x="896.68744"
     y="369.39981"
     id="text4866"><tspan
       sodipodi:role="line"
       id="tspan4864"
       x="896.68744"
       y="369.39981">16</tspan></text>
  <text
     xml:space="preserve"
     style="font-style:normal;font-variant:normal;font-weight:normal;font-stretch:normal;font-size:40px;line-height:1.25;font-family:'Comic Sans MS';-inkscape-font-specification:'Comic Sans MS';letter-spacing:0px;word-spacing:0px;fill:#000000;fill-opacity:1;stroke:none"
     x="79.919235"
     y="149.01321"
     id="text4876"><tspan
       sodipodi:role="line"
       id="tspan4874"
       x="79.919235"
       y="149.01321">level 2</tspan></text>
  <text
     xml:space="preserve"
     style="font-style:normal;font-variant:normal;font-weight:normal;font-stretch:normal;font-size:40px;line-height:1.25;font-family:'Comic Sans MS';-inkscape-font-specification:'Comic Sans MS';letter-spacing:0px;word-spacing:0px;fill:#000000;fill-opacity:1;stroke:none"
     x="83.439781"
     y="303.91754"
     id="text4880"><tspan
       sodipodi:role="line"
       id="tspan4878"
       x="83.439781"
       y="303.91754">level 1</tspan></text>
  <rect
     x="717.06665"
     y="81.022003"
     style="fill:#f0e68c;fill-opacity:0;stroke:#000000;stroke-width:2.04399991;stroke-miterlimit:4;stroke-dasharray:8.17599964, 8.17599964;stroke-dashoffset:0"
     id="e1_rectangle-6-2-0-6-78"
     width="37.146812"
     height="79.956139" />
  <rect
     x="754.21344"
     y="81.022003"
     style="fill:#f0e68c;fill-opacity:0;stroke:#000000;stroke-width:2.04399991;stroke-miterlimit:4;stroke-dasharray:8.17599964, 8.17599964;stroke-dashoffset:0"
     id="e1_rectangle-7-9-9-2-4"
     width="37.146812"
     height="79.956139" />
  <rect
     x="975.16437"
     y="243.24072"
     style="fill:#f0e68c;fill-opacity:0;stroke:#000000;stroke-width:2.04399991;stroke-miterlimit:4;stroke-dasharray:8.17599964, 8.17599964;stroke-dashoffset:0"
     id="e1_rectangle-6-2-0-6-5"
     width="37.146812"
     height="79.956139" />
  <rect
     x="1012.3112"
     y="243.24072"
     style="fill:#f0e68c;fill-opacity:0;stroke:#000000;stroke-width:2.04399991;stroke-miterlimit:4;stroke-dasharray:8.17599964, 8.17599964;stroke-dashoffset:0"
     id="e1_rectangle-7-9-9-2-0"
     width="37.146812"
     height="79.956139" />
  <rect
     x="1192.835"
     y="430.53479"
     style="fill:#f0e68c;fill-opacity:0;stroke:#000000;stroke-width:2.04399991;stroke-miterlimit:4;stroke-dasharray:8.17599964, 8.17599964;stroke-dashoffset:0"
     id="e1_rectangle-6-2-0-6-36"
     width="37.146812"
     height="79.956139" />
  <rect
     x="1229.9817"
     y="430.53479"
     style="fill:#f0e68c;fill-opacity:0;stroke:#000000;stroke-width:2.04399991;stroke-miterlimit:4;stroke-dasharray:8.17599964, 8.17599964;stroke-dashoffset:0"
     id="e1_rectangle-7-9-9-2-1"
     width="37.146812"
     height="79.956139" />
  <rect
     x="1267.1285"
     y="430.53482"
     style="fill:#f0e68c;fill-opacity:0;stroke:#000000;stroke-width:2.04399991;stroke-miterlimit:4;stroke-dasharray:8.17599964, 8.17599964;stroke-dashoffset:0"
     id="e1_rectangle-7-9-9-2-1-0"
     width="37.146812"
     height="79.956139" />
  <text
     xml:space="preserve"
     style="font-style:normal;font-variant:normal;font-weight:normal;font-stretch:normal;font-size:40px;line-height:1.25;font-family:'Comic Sans MS';-inkscape-font-specification:'Comic Sans MS';letter-spacing:0px;word-spacing:0px;fill:#000000;fill-opacity:1;stroke:none"
     x="76.601562"
     y="484.64722"
     id="text4876-6"><tspan
       sodipodi:role="line"
       id="tspan4874-3"
       x="76.601562"
       y="484.64722">level 0</tspan></text>
  <flowRoot
     xml:space="preserve"
     id="flowRoot8697"
     style="font-style:normal;font-weight:normal;font-size:40px;line-height:1.25;font-family:sans-serif;letter-spacing:0px;word-spacing:0px;fill:#000000;fill-opacity:1;stroke:none"
     transform="translate(147.5138,5.7816505e-5)"><flowRegion
       id="flowRegion8699"><rect
         id="rect8701"
         width="1383.5773"
         height="665.38446"
         x="-101.39192"
         y="-14.340484" /></flowRegion><flowPara
       id="flowPara8703"></flowPara></flowRoot></svg>
