<?xml version="1.0" encoding="UTF-8" standalone="no"?>
<svg
   xmlns:dc="http://purl.org/dc/elements/1.1/"
   xmlns:cc="http://creativecommons.org/ns#"
   xmlns:rdf="http://www.w3.org/1999/02/22-rdf-syntax-ns#"
   xmlns:svg="http://www.w3.org/2000/svg"
   xmlns="http://www.w3.org/2000/svg"
   xmlns:sodipodi="http://sodipodi.sourceforge.net/DTD/sodipodi-0.dtd"
   xmlns:inkscape="http://www.inkscape.org/namespaces/inkscape"
   width="1472.0789"
   height="758.43719"
   viewBox="0 0 1472.0788 758.43722"
   preserveAspectRatio="xMidYMid meet"
   version="1.1"
   id="svg17"
   sodipodi:docname="vector-trie-lookup.svg"
   inkscape:version="0.92.1 r15371">
  <metadata
     id="metadata21">
    <rdf:RDF>
      <cc:Work
         rdf:about="">
        <dc:format>image/svg+xml</dc:format>
        <dc:type
           rdf:resource="http://purl.org/dc/dcmitype/StillImage" />
        <dc:title></dc:title>
      </cc:Work>
    </rdf:RDF>
  </metadata>
  <sodipodi:namedview
     pagecolor="#ffffff"
     bordercolor="#666666"
     borderopacity="1"
     objecttolerance="10"
     gridtolerance="10"
     guidetolerance="10"
     inkscape:pageopacity="0"
     inkscape:pageshadow="2"
     inkscape:window-width="2400"
     inkscape:window-height="1424"
     id="namedview19"
     showgrid="false"
     inkscape:zoom="1.4202315"
     inkscape:cx="732.70953"
     inkscape:cy="385.51522"
     inkscape:window-x="0"
     inkscape:window-y="88"
     inkscape:window-maximized="1"
     inkscape:current-layer="svg17"
     fit-margin-top="80"
     fit-margin-left="80"
     fit-margin-right="80"
     fit-margin-bottom="80" />
  <rect
     id="svgEditorBackground"
     x="354.9696"
     y="208.43718"
     width="610"
     height="470"
     style="fill:none;stroke:none" />
  <defs
     id="svgEditorDefs">
    <marker
       inkscape:isstock="true"
       style="overflow:visible"
       id="marker4576"
       refX="0"
       refY="0"
       orient="auto"
       inkscape:stockid="Arrow1Mend">
      <path
         transform="matrix(-0.4,0,0,-0.4,-4,0)"
         style="fill:#000000;fill-opacity:1;fill-rule:evenodd;stroke:#000000;stroke-width:1.00000003pt;stroke-opacity:1"
         d="M 0,0 5,-5 -12.5,0 5,5 Z"
         id="path4574"
         inkscape:connector-curvature="0" />
    </marker>
    <marker
       inkscape:isstock="true"
       style="overflow:visible"
       id="marker4380"
       refX="0"
       refY="0"
       orient="auto"
       inkscape:stockid="DotM">
      <path
         transform="matrix(0.4,0,0,0.4,2.96,0.4)"
         style="fill:#000000;fill-opacity:1;fill-rule:evenodd;stroke:#000000;stroke-width:1.00000003pt;stroke-opacity:1"
         d="m -2.5,-1 c 0,2.76 -2.24,5 -5,5 -2.76,0 -5,-2.24 -5,-5 0,-2.76 2.24,-5 5,-5 2.76,0 5,2.24 5,5 z"
         id="path4378"
         inkscape:connector-curvature="0" />
    </marker>
    <marker
       inkscape:isstock="true"
       style="overflow:visible"
       id="marker3997"
       refX="0"
       refY="0"
       orient="auto"
       inkscape:stockid="Arrow1Mend">
      <path
         transform="matrix(-0.4,0,0,-0.4,-4,0)"
         style="fill:#b70000;fill-opacity:1;fill-rule:evenodd;stroke:#b70000;stroke-width:1.00000003pt;stroke-opacity:1"
         d="M 0,0 5,-5 -12.5,0 5,5 Z"
         id="path3995"
         inkscape:connector-curvature="0" />
    </marker>
    <marker
       inkscape:isstock="true"
       style="overflow:visible"
       id="marker3825"
       refX="0"
       refY="0"
       orient="auto"
       inkscape:stockid="DotM">
      <path
         transform="matrix(0.4,0,0,0.4,2.96,0.4)"
         style="fill:#b70000;fill-opacity:1;fill-rule:evenodd;stroke:#b70000;stroke-width:1.00000003pt;stroke-opacity:1"
         d="m -2.5,-1 c 0,2.76 -2.24,5 -5,5 -2.76,0 -5,-2.24 -5,-5 0,-2.76 2.24,-5 5,-5 2.76,0 5,2.24 5,5 z"
         id="path3823"
         inkscape:connector-curvature="0" />
    </marker>
    <marker
       inkscape:isstock="true"
       style="overflow:visible"
       id="marker3490"
       refX="0"
       refY="0"
       orient="auto"
       inkscape:stockid="Arrow1Mend">
      <path
         transform="matrix(-0.4,0,0,-0.4,-4,0)"
         style="fill:#000000;fill-opacity:1;fill-rule:evenodd;stroke:#000000;stroke-width:1.00000003pt;stroke-opacity:1"
         d="M 0,0 5,-5 -12.5,0 5,5 Z"
         id="path3488"
         inkscape:connector-curvature="0" />
    </marker>
    <marker
       inkscape:isstock="true"
       style="overflow:visible"
       id="marker3342"
       refX="0"
       refY="0"
       orient="auto"
       inkscape:stockid="DotM">
      <path
         transform="matrix(0.4,0,0,0.4,2.96,0.4)"
         style="fill:#000000;fill-opacity:1;fill-rule:evenodd;stroke:#000000;stroke-width:1.00000003pt;stroke-opacity:1"
         d="m -2.5,-1 c 0,2.76 -2.24,5 -5,5 -2.76,0 -5,-2.24 -5,-5 0,-2.76 2.24,-5 5,-5 2.76,0 5,2.24 5,5 z"
         id="path3340"
         inkscape:connector-curvature="0" />
    </marker>
    <marker
       inkscape:isstock="true"
       style="overflow:visible"
       id="marker3055"
       refX="0"
       refY="0"
       orient="auto"
       inkscape:stockid="Arrow1Mend">
      <path
         transform="matrix(-0.4,0,0,-0.4,-4,0)"
         style="fill:#000000;fill-opacity:1;fill-rule:evenodd;stroke:#000000;stroke-width:1.00000003pt;stroke-opacity:1"
         d="M 0,0 5,-5 -12.5,0 5,5 Z"
         id="path3053"
         inkscape:connector-curvature="0" />
    </marker>
    <marker
       inkscape:isstock="true"
       style="overflow:visible"
       id="marker2931"
       refX="0"
       refY="0"
       orient="auto"
       inkscape:stockid="DotM">
      <path
         transform="matrix(0.4,0,0,0.4,2.96,0.4)"
         style="fill:#000000;fill-opacity:1;fill-rule:evenodd;stroke:#000000;stroke-width:1.00000003pt;stroke-opacity:1"
         d="m -2.5,-1 c 0,2.76 -2.24,5 -5,5 -2.76,0 -5,-2.24 -5,-5 0,-2.76 2.24,-5 5,-5 2.76,0 5,2.24 5,5 z"
         id="path2929"
         inkscape:connector-curvature="0" />
    </marker>
    <marker
       inkscape:isstock="true"
       style="overflow:visible"
       id="marker2692"
       refX="0"
       refY="0"
       orient="auto"
       inkscape:stockid="Arrow1Mend">
      <path
         transform="matrix(-0.4,0,0,-0.4,-4,0)"
         style="fill:#000000;fill-opacity:1;fill-rule:evenodd;stroke:#000000;stroke-width:1.00000003pt;stroke-opacity:1"
         d="M 0,0 5,-5 -12.5,0 5,5 Z"
         id="path2690"
         inkscape:connector-curvature="0" />
    </marker>
    <marker
       inkscape:isstock="true"
       style="overflow:visible"
       id="marker2592"
       refX="0"
       refY="0"
       orient="auto"
       inkscape:stockid="DotM">
      <path
         transform="matrix(0.4,0,0,0.4,2.96,0.4)"
         style="fill:#000000;fill-opacity:1;fill-rule:evenodd;stroke:#000000;stroke-width:1.00000003pt;stroke-opacity:1"
         d="m -2.5,-1 c 0,2.76 -2.24,5 -5,5 -2.76,0 -5,-2.24 -5,-5 0,-2.76 2.24,-5 5,-5 2.76,0 5,2.24 5,5 z"
         id="path2590"
         inkscape:connector-curvature="0" />
    </marker>
    <marker
       inkscape:isstock="true"
       style="overflow:visible"
       id="marker2401"
       refX="0"
       refY="0"
       orient="auto"
       inkscape:stockid="Arrow1Mend">
      <path
         transform="matrix(-0.4,0,0,-0.4,-4,0)"
         style="fill:#000000;fill-opacity:1;fill-rule:evenodd;stroke:#000000;stroke-width:1.00000003pt;stroke-opacity:1"
         d="M 0,0 5,-5 -12.5,0 5,5 Z"
         id="path2399"
         inkscape:connector-curvature="0" />
    </marker>
    <marker
       inkscape:isstock="true"
       style="overflow:visible"
       id="marker2325"
       refX="0"
       refY="0"
       orient="auto"
       inkscape:stockid="DotM">
      <path
         transform="matrix(0.4,0,0,0.4,2.96,0.4)"
         style="fill:#000000;fill-opacity:1;fill-rule:evenodd;stroke:#000000;stroke-width:1.00000003pt;stroke-opacity:1"
         d="m -2.5,-1 c 0,2.76 -2.24,5 -5,5 -2.76,0 -5,-2.24 -5,-5 0,-2.76 2.24,-5 5,-5 2.76,0 5,2.24 5,5 z"
         id="path2323"
         inkscape:connector-curvature="0" />
    </marker>
    <marker
       inkscape:isstock="true"
       style="overflow:visible"
       id="marker2182"
       refX="0"
       refY="0"
       orient="auto"
       inkscape:stockid="Arrow1Mend">
      <path
         transform="matrix(-0.4,0,0,-0.4,-4,0)"
         style="fill:#b60000;fill-opacity:1;fill-rule:evenodd;stroke:#b60000;stroke-width:1.00000003pt;stroke-opacity:1"
         d="M 0,0 5,-5 -12.5,0 5,5 Z"
         id="path2180"
         inkscape:connector-curvature="0" />
    </marker>
    <marker
       inkscape:isstock="true"
       style="overflow:visible"
       id="marker2130"
       refX="0"
       refY="0"
       orient="auto"
       inkscape:stockid="DotM">
      <path
         transform="matrix(0.4,0,0,0.4,2.96,0.4)"
         style="fill:#b60000;fill-opacity:1;fill-rule:evenodd;stroke:#b60000;stroke-width:1.00000003pt;stroke-opacity:1"
         d="m -2.5,-1 c 0,2.76 -2.24,5 -5,5 -2.76,0 -5,-2.24 -5,-5 0,-2.76 2.24,-5 5,-5 2.76,0 5,2.24 5,5 z"
         id="path2128"
         inkscape:connector-curvature="0" />
    </marker>
    <marker
       id="arrow15-12-left"
       markerHeight="12"
       markerUnits="strokeWidth"
       markerWidth="15"
       orient="auto"
       refX="3"
       refY="0"
       viewBox="0 -5 20 20">
      <path
         d="M 15,-5 0,0 15,5 Z"
         id="path3"
         inkscape:connector-curvature="0"
         style="fill:#000000" />
    </marker>
    <marker
       id="circle8"
       markerHeight="8"
       markerUnits="strokeWidth"
       markerWidth="8"
       orient="auto"
       refX="0"
       refY="0"
       viewBox="-5 -5 10 10">
      <circle
         cx="0"
         cy="0"
         r="5"
         id="circle6"
         style="fill:#000000" />
    </marker>
    <marker
       inkscape:stockid="DotM"
       orient="auto"
       refY="0"
       refX="0"
       id="marker7253"
       style="overflow:visible"
       inkscape:isstock="true"
       inkscape:collect="always">
      <path
         inkscape:connector-curvature="0"
         id="path7251"
         d="m -2.5,-1 c 0,2.76 -2.24,5 -5,5 -2.76,0 -5,-2.24 -5,-5 0,-2.76 2.24,-5 5,-5 2.76,0 5,2.24 5,5 z"
         style="fill:#000000;fill-opacity:1;fill-rule:evenodd;stroke:#000000;stroke-width:1.00000003pt;stroke-opacity:1"
         transform="matrix(0.4,0,0,0.4,2.96,0.4)" />
    </marker>
    <marker
       inkscape:stockid="Arrow1Mend"
       orient="auto"
       refY="0"
       refX="0"
       id="marker7443"
       style="overflow:visible"
       inkscape:isstock="true"
       inkscape:collect="always">
      <path
         inkscape:connector-curvature="0"
         id="path7441"
         d="M 0,0 5,-5 -12.5,0 5,5 Z"
         style="fill:#000000;fill-opacity:1;fill-rule:evenodd;stroke:#000000;stroke-width:1.00000003pt;stroke-opacity:1"
         transform="matrix(-0.4,0,0,-0.4,-4,0)" />
    </marker>
    <marker
       inkscape:stockid="DotM"
       orient="auto"
       refY="0"
       refX="0"
       id="marker7253-7"
       style="overflow:visible"
       inkscape:isstock="true">
      <path
         inkscape:connector-curvature="0"
         id="path7251-8"
         d="m -2.5,-1 c 0,2.76 -2.24,5 -5,5 -2.76,0 -5,-2.24 -5,-5 0,-2.76 2.24,-5 5,-5 2.76,0 5,2.24 5,5 z"
         style="fill:#000000;fill-opacity:1;fill-rule:evenodd;stroke:#000000;stroke-width:1.00000003pt;stroke-opacity:1"
         transform="matrix(0.4,0,0,0.4,2.96,0.4)" />
    </marker>
    <marker
       inkscape:stockid="Arrow1Mend"
       orient="auto"
       refY="0"
       refX="0"
       id="marker7443-4"
       style="overflow:visible"
       inkscape:isstock="true">
      <path
         inkscape:connector-curvature="0"
         id="path7441-5"
         d="M 0,0 5,-5 -12.5,0 5,5 Z"
         style="fill:#000000;fill-opacity:1;fill-rule:evenodd;stroke:#000000;stroke-width:1.00000003pt;stroke-opacity:1"
         transform="matrix(-0.4,0,0,-0.4,-4,0)" />
    </marker>
    <marker
       inkscape:stockid="DotM"
       orient="auto"
       refY="0"
       refX="0"
       id="marker7253-0"
       style="overflow:visible"
       inkscape:isstock="true">
      <path
         inkscape:connector-curvature="0"
         id="path7251-3"
         d="m -2.5,-1 c 0,2.76 -2.24,5 -5,5 -2.76,0 -5,-2.24 -5,-5 0,-2.76 2.24,-5 5,-5 2.76,0 5,2.24 5,5 z"
         style="fill:#000000;fill-opacity:1;fill-rule:evenodd;stroke:#000000;stroke-width:1.00000003pt;stroke-opacity:1"
         transform="matrix(0.4,0,0,0.4,2.96,0.4)" />
    </marker>
    <marker
       inkscape:stockid="Arrow1Mend"
       orient="auto"
       refY="0"
       refX="0"
       id="marker7443-6"
       style="overflow:visible"
       inkscape:isstock="true">
      <path
         inkscape:connector-curvature="0"
         id="path7441-1"
         d="M 0,0 5,-5 -12.5,0 5,5 Z"
         style="fill:#000000;fill-opacity:1;fill-rule:evenodd;stroke:#000000;stroke-width:1.00000003pt;stroke-opacity:1"
         transform="matrix(-0.4,0,0,-0.4,-4,0)" />
    </marker>
    <marker
       inkscape:stockid="DotM"
       orient="auto"
       refY="0"
       refX="0"
       id="marker7253-06"
       style="overflow:visible"
       inkscape:isstock="true">
      <path
         inkscape:connector-curvature="0"
         id="path7251-32"
         d="m -2.5,-1 c 0,2.76 -2.24,5 -5,5 -2.76,0 -5,-2.24 -5,-5 0,-2.76 2.24,-5 5,-5 2.76,0 5,2.24 5,5 z"
         style="fill:#000000;fill-opacity:1;fill-rule:evenodd;stroke:#000000;stroke-width:1.00000003pt;stroke-opacity:1"
         transform="matrix(0.4,0,0,0.4,2.96,0.4)" />
    </marker>
    <marker
       inkscape:stockid="Arrow1Mend"
       orient="auto"
       refY="0"
       refX="0"
       id="marker7443-0"
       style="overflow:visible"
       inkscape:isstock="true">
      <path
         inkscape:connector-curvature="0"
         id="path7441-6"
         d="M 0,0 5,-5 -12.5,0 5,5 Z"
         style="fill:#000000;fill-opacity:1;fill-rule:evenodd;stroke:#000000;stroke-width:1.00000003pt;stroke-opacity:1"
         transform="matrix(-0.4,0,0,-0.4,-4,0)" />
    </marker>
    <marker
       inkscape:stockid="DotM"
       orient="auto"
       refY="0"
       refX="0"
       id="marker7253-1"
       style="overflow:visible"
       inkscape:isstock="true">
      <path
         inkscape:connector-curvature="0"
         id="path7251-5"
         d="m -2.5,-1 c 0,2.76 -2.24,5 -5,5 -2.76,0 -5,-2.24 -5,-5 0,-2.76 2.24,-5 5,-5 2.76,0 5,2.24 5,5 z"
         style="fill:#000000;fill-opacity:1;fill-rule:evenodd;stroke:#000000;stroke-width:1.00000003pt;stroke-opacity:1"
         transform="matrix(0.4,0,0,0.4,2.96,0.4)" />
    </marker>
    <marker
       inkscape:stockid="Arrow1Mend"
       orient="auto"
       refY="0"
       refX="0"
       id="marker7443-5"
       style="overflow:visible"
       inkscape:isstock="true">
      <path
         inkscape:connector-curvature="0"
         id="path7441-4"
         d="M 0,0 5,-5 -12.5,0 5,5 Z"
         style="fill:#000000;fill-opacity:1;fill-rule:evenodd;stroke:#000000;stroke-width:1.00000003pt;stroke-opacity:1"
         transform="matrix(-0.4,0,0,-0.4,-4,0)" />
    </marker>
    <marker
       inkscape:stockid="DotM"
       orient="auto"
       refY="0"
       refX="0"
       id="marker7253-76"
       style="overflow:visible"
       inkscape:isstock="true">
      <path
         inkscape:connector-curvature="0"
         id="path7251-56"
         d="m -2.5,-1 c 0,2.76 -2.24,5 -5,5 -2.76,0 -5,-2.24 -5,-5 0,-2.76 2.24,-5 5,-5 2.76,0 5,2.24 5,5 z"
         style="fill:#000000;fill-opacity:1;fill-rule:evenodd;stroke:#000000;stroke-width:1.00000003pt;stroke-opacity:1"
         transform="matrix(0.4,0,0,0.4,2.96,0.4)" />
    </marker>
    <marker
       inkscape:stockid="Arrow1Mend"
       orient="auto"
       refY="0"
       refX="0"
       id="marker7443-9"
       style="overflow:visible"
       inkscape:isstock="true">
      <path
         inkscape:connector-curvature="0"
         id="path7441-3"
         d="M 0,0 5,-5 -12.5,0 5,5 Z"
         style="fill:#000000;fill-opacity:1;fill-rule:evenodd;stroke:#000000;stroke-width:1.00000003pt;stroke-opacity:1"
         transform="matrix(-0.4,0,0,-0.4,-4,0)" />
    </marker>
    <marker
       inkscape:stockid="DotM"
       orient="auto"
       refY="0"
       refX="0"
       id="marker7253-74"
       style="overflow:visible"
       inkscape:isstock="true">
      <path
         inkscape:connector-curvature="0"
         id="path7251-52"
         d="m -2.5,-1 c 0,2.76 -2.24,5 -5,5 -2.76,0 -5,-2.24 -5,-5 0,-2.76 2.24,-5 5,-5 2.76,0 5,2.24 5,5 z"
         style="fill:#000000;fill-opacity:1;fill-rule:evenodd;stroke:#000000;stroke-width:1.00000003pt;stroke-opacity:1"
         transform="matrix(0.4,0,0,0.4,2.96,0.4)" />
    </marker>
    <marker
       inkscape:stockid="Arrow1Mend"
       orient="auto"
       refY="0"
       refX="0"
       id="marker7443-54"
       style="overflow:visible"
       inkscape:isstock="true">
      <path
         inkscape:connector-curvature="0"
         id="path7441-7"
         d="M 0,0 5,-5 -12.5,0 5,5 Z"
         style="fill:#000000;fill-opacity:1;fill-rule:evenodd;stroke:#000000;stroke-width:1.00000003pt;stroke-opacity:1"
         transform="matrix(-0.4,0,0,-0.4,-4,0)" />
    </marker>
    <marker
       inkscape:stockid="DotM"
       orient="auto"
       refY="0"
       refX="0"
       id="marker7253-4"
       style="overflow:visible"
       inkscape:isstock="true">
      <path
         inkscape:connector-curvature="0"
         id="path7251-4"
         d="m -2.5,-1 c 0,2.76 -2.24,5 -5,5 -2.76,0 -5,-2.24 -5,-5 0,-2.76 2.24,-5 5,-5 2.76,0 5,2.24 5,5 z"
         style="fill:#000000;fill-opacity:1;fill-rule:evenodd;stroke:#000000;stroke-width:1.00000003pt;stroke-opacity:1"
         transform="matrix(0.4,0,0,0.4,2.96,0.4)" />
    </marker>
    <marker
       inkscape:stockid="Arrow1Mend"
       orient="auto"
       refY="0"
       refX="0"
       id="marker7443-3"
       style="overflow:visible"
       inkscape:isstock="true">
      <path
         inkscape:connector-curvature="0"
         id="path7441-0"
         d="M 0,0 5,-5 -12.5,0 5,5 Z"
         style="fill:#000000;fill-opacity:1;fill-rule:evenodd;stroke:#000000;stroke-width:1.00000003pt;stroke-opacity:1"
         transform="matrix(-0.4,0,0,-0.4,-4,0)" />
    </marker>
  </defs>
  <text
     xml:space="preserve"
     style="font-style:normal;font-variant:normal;font-weight:normal;font-stretch:normal;font-size:40px;line-height:1.25;font-family:'Comic Sans MS';-inkscape-font-specification:'Comic Sans MS';letter-spacing:0px;word-spacing:0px;fill:#000000;fill-opacity:1;stroke:none"
     x="621.12573"
     y="417.1731"
     id="text61"><tspan
       sodipodi:role="line"
       id="tspan59"
       x="621.12573"
       y="451.48853" /></text>
  <text
     xml:space="preserve"
     style="font-style:normal;font-variant:normal;font-weight:normal;font-stretch:normal;font-size:40px;line-height:1.25;font-family:'Comic Sans MS';-inkscape-font-specification:'Comic Sans MS';letter-spacing:0px;word-spacing:0px;fill:#000000;fill-opacity:1;stroke:none"
     x="706.76135"
     y="414.18582"
     id="text65"><tspan
       sodipodi:role="line"
       id="tspan63"
       x="706.76135"
       y="448.50125" /></text>
  <g
     id="g883"
     transform="translate(403.55159,225.95702)">
    <rect
       height="79.956139"
       width="37.146812"
       id="e1_rectangle"
       style="fill:#f0e68c;stroke:#000000;stroke-width:2.04386353px"
       y="81.021935"
       x="81.021935" />
    <rect
       height="79.956139"
       width="37.146812"
       id="e1_rectangle-3"
       style="fill:#f0e68c;stroke:#000000;stroke-width:2.04386353px"
       y="81.021935"
       x="118.16875" />
    <rect
       height="79.956139"
       width="37.146812"
       id="e1_rectangle-6"
       style="fill:#f0e68c;stroke:#000000;stroke-width:2.04386353px"
       y="81.021942"
       x="155.31555" />
    <rect
       height="79.956139"
       width="37.146812"
       id="e1_rectangle-7"
       style="fill:#f0e68c;stroke:#000000;stroke-width:2.04386353px"
       y="81.021942"
       x="192.46237" />
  </g>
  <rect
     x="987.65234"
     y="306.97897"
     style="fill:#e60000;fill-opacity:1;stroke:#130000;stroke-width:2.04386353px;stroke-opacity:1"
     id="e1_rectangle-35"
     width="37.146812"
     height="79.956139" />
  <rect
     x="1024.7991"
     y="306.97897"
     style="fill:#f0e68c;stroke:#000000;stroke-width:2.04386353px"
     id="e1_rectangle-3-6"
     width="37.146812"
     height="79.956139" />
  <g
     transform="translate(234.29535,413.25104)"
     id="g883-5-1">
    <rect
       height="79.956139"
       width="37.146812"
       id="e1_rectangle-35-2"
       style="fill:#f0e68c;stroke:#000000;stroke-width:2.04386353px"
       y="81.021935"
       x="81.021935" />
    <rect
       height="79.956139"
       width="37.146812"
       id="e1_rectangle-3-6-7"
       style="fill:#f0e68c;stroke:#000000;stroke-width:2.04386353px"
       y="81.021935"
       x="118.16875" />
    <rect
       height="79.956139"
       width="37.146812"
       id="e1_rectangle-6-2-0"
       style="fill:#f0e68c;stroke:#000000;stroke-width:2.04386353px"
       y="81.021942"
       x="155.31555" />
    <rect
       height="79.956139"
       width="37.146812"
       id="e1_rectangle-7-9-9"
       style="fill:#f0e68c;stroke:#000000;stroke-width:2.04386353px"
       y="81.021942"
       x="192.46237" />
  </g>
  <g
     transform="translate(416.73854,413.25106)"
     id="g883-5-1-3">
    <rect
       height="79.956139"
       width="37.146812"
       id="e1_rectangle-35-2-6"
       style="fill:#f0e68c;stroke:#000000;stroke-width:2.04386353px"
       y="81.021935"
       x="81.021935" />
    <rect
       height="79.956139"
       width="37.146812"
       id="e1_rectangle-3-6-7-0"
       style="fill:#f0e68c;stroke:#000000;stroke-width:2.04386353px"
       y="81.021935"
       x="118.16875" />
    <rect
       height="79.956139"
       width="37.146812"
       id="e1_rectangle-6-2-0-6"
       style="fill:#f0e68c;stroke:#000000;stroke-width:2.04386353px"
       y="81.021942"
       x="155.31555" />
    <rect
       height="79.956139"
       width="37.146812"
       id="e1_rectangle-7-9-9-2"
       style="fill:#f0e68c;stroke:#000000;stroke-width:2.04386353px"
       y="81.021942"
       x="192.46237" />
  </g>
  <g
     transform="translate(600.1775,413.25108)"
     id="g883-5-1-3-6">
    <rect
       height="79.956139"
       width="37.146812"
       id="e1_rectangle-35-2-6-1"
       style="fill:#f0e68c;stroke:#000000;stroke-width:2.04386353px"
       y="81.021935"
       x="81.021935" />
    <rect
       height="79.956139"
       width="37.146812"
       id="e1_rectangle-3-6-7-0-8"
       style="fill:#f0e68c;stroke:#000000;stroke-width:2.04386353px"
       y="81.021935"
       x="118.16875" />
    <rect
       height="79.956139"
       width="37.146812"
       id="e1_rectangle-6-2-0-6-7"
       style="fill:#f0e68c;stroke:#000000;stroke-width:2.04386353px"
       y="81.021942"
       x="155.31555" />
    <rect
       height="79.956139"
       width="37.146812"
       id="e1_rectangle-7-9-9-2-9"
       style="fill:#f0e68c;stroke:#000000;stroke-width:2.04386353px"
       y="81.021942"
       x="192.46237" />
  </g>
  <g
     transform="translate(784.61222,413.25109)"
     id="g883-5-1-3-2">
    <rect
       height="79.956139"
       width="37.146812"
       id="e1_rectangle-35-2-6-0"
       style="fill:#f0e68c;stroke:#000000;stroke-width:2.04386353px"
       y="81.021935"
       x="81.021935" />
    <rect
       height="79.956139"
       width="37.146812"
       id="e1_rectangle-3-6-7-0-2"
       style="fill:#f0e68c;stroke:#000000;stroke-width:2.04386353px"
       y="81.021935"
       x="118.16875" />
    <rect
       height="79.956139"
       width="37.146812"
       id="e1_rectangle-6-2-0-6-3"
       style="fill:#f0e68c;stroke:#000000;stroke-width:2.04386353px"
       y="81.021942"
       x="155.31555" />
    <rect
       height="79.956139"
       width="37.146812"
       id="e1_rectangle-7-9-9-2-7"
       style="fill:#f0e68c;stroke:#000000;stroke-width:2.04386353px"
       y="81.021942"
       x="192.46237" />
  </g>
  <rect
     x="1055.0476"
     y="494.27304"
     style="fill:#f0e68c;stroke:#000000;stroke-width:2.04386353px"
     id="e1_rectangle-35-2-6-0-9"
     width="37.146812"
     height="79.956139" />
  <rect
     x="1092.1946"
     y="494.27304"
     style="fill:#f0e68c;stroke:#000000;stroke-width:2.04386353px"
     id="e1_rectangle-3-6-7-0-2-2"
     width="37.146812"
     height="79.956139" />
  <rect
     x="1129.3412"
     y="494.27304"
     style="fill:#fb0000;fill-opacity:1;stroke:#000000;stroke-width:2.04386353px"
     id="e1_rectangle-6-2-0-6-3-2"
     width="37.146812"
     height="79.956139" />
  <rect
     x="1166.488"
     y="494.27304"
     style="fill:#f0e68c;stroke:#000000;stroke-width:2.04386353px"
     id="e1_rectangle-7-9-9-2-7-8"
     width="37.146812"
     height="79.956139" />
  <rect
     x="1242.4696"
     y="494.27304"
     style="fill:#f0e68c;stroke:#000000;stroke-width:2.04386353px"
     id="e1_rectangle-6-2-0-6-3-6"
     width="37.146812"
     height="79.956139" />
  <rect
     x="729.55457"
     y="144.76025"
     style="fill:#f0e68c;stroke:#000000;stroke-width:2.04386353px"
     id="e1_rectangle-9"
     width="37.146812"
     height="79.956139" />
  <rect
     x="766.70142"
     y="144.76025"
     style="fill:#f00000;fill-opacity:1;stroke:#000000;stroke-width:2.04386353px"
     id="e1_rectangle-3-3"
     width="37.146812"
     height="79.956139" />
  <path
     style="opacity:1;vector-effect:none;fill:none;fill-opacity:1;stroke:#000000;stroke-width:4;stroke-linecap:butt;stroke-linejoin:miter;stroke-miterlimit:4;stroke-dasharray:none;stroke-dashoffset:0;stroke-opacity:1;marker-start:url(#marker7253);marker-end:url(#marker7443)"
     d="M 749.08125,224.56883 558.86714,306.97895"
     id="path1087"
     inkscape:connector-curvature="0" />
  <path
     style="opacity:1;vector-effect:none;fill:none;fill-opacity:1;stroke:#000000;stroke-width:4;stroke-linecap:butt;stroke-linejoin:miter;stroke-miterlimit:4;stroke-dasharray:none;stroke-dashoffset:0;stroke-opacity:1;marker-start:url(#marker2325);marker-end:url(#marker2401)"
     d="M 501.13633,386.87816 389.6109,494.27297"
     id="path1091"
     inkscape:connector-curvature="0" />
  <path
     style="opacity:1;vector-effect:none;fill:none;fill-opacity:1;stroke:#000000;stroke-width:4;stroke-linecap:butt;stroke-linejoin:miter;stroke-miterlimit:4;stroke-dasharray:none;stroke-dashoffset:0;stroke-opacity:1;marker-start:url(#marker2592);marker-end:url(#marker2692)"
     d="M 540.96684,385.8824 572.05409,494.273"
     id="path1093"
     inkscape:connector-curvature="0" />
  <path
     style="opacity:1;vector-effect:none;fill:none;fill-opacity:1;stroke:#000000;stroke-width:4;stroke-linecap:butt;stroke-linejoin:miter;stroke-miterlimit:4;stroke-dasharray:none;stroke-dashoffset:0;stroke-opacity:1;marker-start:url(#marker2931);marker-end:url(#marker3055)"
     d="M 577.81006,386.87816 755.49305,494.27302"
     id="path1095"
     inkscape:connector-curvature="0" />
  <path
     style="opacity:1;vector-effect:none;fill:none;fill-opacity:1;stroke:#000000;stroke-width:4;stroke-linecap:butt;stroke-linejoin:miter;stroke-miterlimit:4;stroke-dasharray:none;stroke-dashoffset:0;stroke-opacity:1;marker-start:url(#marker3342);marker-end:url(#marker3490)"
     d="m 617.64057,386.87816 322.2872,107.39487"
     id="path1097"
     inkscape:connector-curvature="0" />
  <path
     style="opacity:1;vector-effect:none;fill:none;fill-opacity:1;stroke:#b60000;stroke-width:3.67725587;stroke-linecap:butt;stroke-linejoin:miter;stroke-miterlimit:4;stroke-dasharray:none;stroke-dashoffset:0;stroke-opacity:1;marker-start:url(#marker2130);marker-end:url(#marker2182)"
     d="m 784.92871,225.56459 202.72363,81.41439"
     id="path1107"
     inkscape:connector-curvature="0" />
  <path
     style="opacity:1;vector-effect:none;fill:none;fill-opacity:1;stroke:#b70000;stroke-width:4;stroke-linecap:butt;stroke-linejoin:miter;stroke-miterlimit:4;stroke-dasharray:none;stroke-dashoffset:0;stroke-opacity:1;marker-start:url(#marker3825);marker-end:url(#marker3997)"
     d="m 1006.9838,385.8824 122.3576,108.39065"
     id="path1109"
     inkscape:connector-curvature="0" />
  <path
     style="opacity:1;vector-effect:none;fill:none;fill-opacity:1;stroke:#000000;stroke-width:4;stroke-linecap:butt;stroke-linejoin:miter;stroke-miterlimit:4;stroke-dasharray:none;stroke-dashoffset:0;stroke-opacity:1;marker-start:url(#marker4380);marker-end:url(#marker4576)"
     d="m 1043.827,386.87816 218.0721,105.55085"
     id="path1111"
     inkscape:connector-curvature="0" />
  <text
     xml:space="preserve"
     style="font-style:normal;font-variant:normal;font-weight:normal;font-stretch:normal;font-size:40px;line-height:1.25;font-family:'Comic Sans MS';-inkscape-font-specification:'Comic Sans MS';letter-spacing:0px;word-spacing:0px;fill:#000000;fill-opacity:1;stroke:none"
     x="321.60507"
     y="614.79865"
     id="text4814"><tspan
       sodipodi:role="line"
       id="tspan4812"
       x="321.60507"
       y="614.79865">0</tspan></text>
  <text
     xml:space="preserve"
     style="font-style:normal;font-variant:normal;font-weight:normal;font-stretch:normal;font-size:40px;line-height:1.25;font-family:'Comic Sans MS';-inkscape-font-specification:'Comic Sans MS';letter-spacing:0px;word-spacing:0px;fill:#000000;fill-opacity:1;stroke:none"
     x="1238.3569"
     y="616.20685"
     id="text4818"><tspan
       sodipodi:role="line"
       id="tspan4816"
       x="1238.3569"
       y="616.20685">20</tspan></text>
  <text
     xml:space="preserve"
     style="font-style:normal;font-variant:normal;font-weight:normal;font-stretch:normal;font-size:40px;line-height:1.25;font-family:'Comic Sans MS';-inkscape-font-specification:'Comic Sans MS';letter-spacing:0px;word-spacing:0px;fill:#000000;fill-opacity:1;stroke:none"
     x="500.44916"
     y="613.39044"
     id="text4822"><tspan
       sodipodi:role="line"
       id="tspan4820"
       x="500.44916"
       y="613.39044">4</tspan></text>
  <text
     xml:space="preserve"
     style="font-style:normal;font-variant:normal;font-weight:normal;font-stretch:normal;font-size:40px;line-height:1.25;font-family:'Comic Sans MS';-inkscape-font-specification:'Comic Sans MS';letter-spacing:0px;word-spacing:0px;fill:#000000;fill-opacity:1;stroke:none"
     x="687.74255"
     y="614.79865"
     id="text4826"><tspan
       sodipodi:role="line"
       id="tspan4824"
       x="687.74255"
       y="614.79865">8</tspan></text>
  <text
     xml:space="preserve"
     style="font-style:normal;font-variant:normal;font-weight:normal;font-stretch:normal;font-size:40px;line-height:1.25;font-family:'Comic Sans MS';-inkscape-font-specification:'Comic Sans MS';letter-spacing:0px;word-spacing:0px;fill:#000000;fill-opacity:1;stroke:none"
     x="863.7702"
     y="616.20691"
     id="text4830"><tspan
       sodipodi:role="line"
       id="tspan4828"
       x="863.7702"
       y="616.20691">12</tspan></text>
  <text
     xml:space="preserve"
     style="font-style:normal;font-variant:normal;font-weight:normal;font-stretch:normal;font-size:40px;line-height:1.25;font-family:'Comic Sans MS';-inkscape-font-specification:'Comic Sans MS';letter-spacing:0px;word-spacing:0px;fill:#000000;fill-opacity:1;stroke:none"
     x="1053.88"
     y="616.20691"
     id="text4834"><tspan
       sodipodi:role="line"
       id="tspan4832"
       x="1053.88"
       y="616.20691">16</tspan></text>
  <text
     xml:space="preserve"
     style="font-style:normal;font-variant:normal;font-weight:normal;font-stretch:normal;font-size:40px;line-height:1.25;font-family:'Comic Sans MS';-inkscape-font-specification:'Comic Sans MS';letter-spacing:0px;word-spacing:0px;fill:#000000;fill-opacity:1;stroke:none"
     x="729.9892"
     y="276.82553"
     id="text4838"><tspan
       sodipodi:role="line"
       id="tspan4836"
       x="729.9892"
       y="276.82553">0</tspan></text>
  <text
     xml:space="preserve"
     style="font-style:normal;font-variant:normal;font-weight:normal;font-stretch:normal;font-size:40px;line-height:1.25;font-family:'Comic Sans MS';-inkscape-font-specification:'Comic Sans MS';letter-spacing:0px;word-spacing:0px;fill:#000000;fill-opacity:1;stroke:none"
     x="769.41937"
     y="276.82553"
     id="text4842"><tspan
       sodipodi:role="line"
       id="tspan4840"
       x="769.41937"
       y="276.82553">16</tspan></text>
  <text
     xml:space="preserve"
     style="font-style:normal;font-variant:normal;font-weight:normal;font-stretch:normal;font-size:40px;line-height:1.25;font-family:'Comic Sans MS';-inkscape-font-specification:'Comic Sans MS';letter-spacing:0px;word-spacing:0px;fill:#000000;fill-opacity:1;stroke:none"
     x="493.40805"
     y="355.68591"
     id="text4846"><tspan
       sodipodi:role="line"
       id="tspan4844"
       x="493.40805"
       y="390.00134" /></text>
  <text
     xml:space="preserve"
     style="font-style:normal;font-variant:normal;font-weight:normal;font-stretch:normal;font-size:40px;line-height:1.25;font-family:'Comic Sans MS';-inkscape-font-specification:'Comic Sans MS';letter-spacing:0px;word-spacing:0px;fill:#000000;fill-opacity:1;stroke:none"
     x="489.18338"
     y="434.5463"
     id="text4862"><tspan
       sodipodi:role="line"
       id="tspan4860"
       x="489.18338"
       y="434.5463">0</tspan></text>
  <text
     xml:space="preserve"
     style="font-style:normal;font-variant:normal;font-weight:normal;font-stretch:normal;font-size:40px;line-height:1.25;font-family:'Comic Sans MS';-inkscape-font-specification:'Comic Sans MS';letter-spacing:0px;word-spacing:0px;fill:#000000;fill-opacity:1;stroke:none"
     x="983.46899"
     y="433.13806"
     id="text4866"><tspan
       sodipodi:role="line"
       id="tspan4864"
       x="983.46899"
       y="433.13806">16</tspan></text>
  <text
     xml:space="preserve"
     style="font-style:normal;font-variant:normal;font-weight:normal;font-stretch:normal;font-size:40px;line-height:1.25;font-family:'Comic Sans MS';-inkscape-font-specification:'Comic Sans MS';letter-spacing:0px;word-spacing:0px;fill:#000000;fill-opacity:1;stroke:none"
     x="109.66783"
     y="213.4556"
     id="text4876"><tspan
       sodipodi:role="line"
       id="tspan4874"
       x="109.66783"
       y="213.4556">level 2: 01</tspan></text>
  <text
     xml:space="preserve"
     style="font-style:normal;font-variant:normal;font-weight:normal;font-stretch:normal;font-size:40px;line-height:1.25;font-family:'Comic Sans MS';-inkscape-font-specification:'Comic Sans MS';letter-spacing:0px;word-spacing:0px;fill:#000000;fill-opacity:1;stroke:none"
     x="113.18838"
     y="368.35989"
     id="text4880"><tspan
       sodipodi:role="line"
       id="tspan4878"
       x="113.18838"
       y="368.35989">level 1: 00</tspan></text>
  <rect
     x="803.84821"
     y="144.76027"
     style="fill:#f0e68c;fill-opacity:0;stroke:#000000;stroke-width:2.04399991;stroke-miterlimit:4;stroke-dasharray:8.17599964, 8.17599964;stroke-dashoffset:0"
     id="e1_rectangle-6-2-0-6-78"
     width="37.146812"
     height="79.956139" />
  <rect
     x="840.995"
     y="144.76027"
     style="fill:#f0e68c;fill-opacity:0;stroke:#000000;stroke-width:2.04399991;stroke-miterlimit:4;stroke-dasharray:8.17599964, 8.17599964;stroke-dashoffset:0"
     id="e1_rectangle-7-9-9-2-4"
     width="37.146812"
     height="79.956139" />
  <rect
     x="1061.9459"
     y="306.97897"
     style="fill:#f0e68c;fill-opacity:0;stroke:#000000;stroke-width:2.04399991;stroke-miterlimit:4;stroke-dasharray:8.17599964, 8.17599964;stroke-dashoffset:0"
     id="e1_rectangle-6-2-0-6-5"
     width="37.146812"
     height="79.956139" />
  <rect
     x="1099.0928"
     y="306.97897"
     style="fill:#f0e68c;fill-opacity:0;stroke:#000000;stroke-width:2.04399991;stroke-miterlimit:4;stroke-dasharray:8.17599964, 8.17599964;stroke-dashoffset:0"
     id="e1_rectangle-7-9-9-2-0"
     width="37.146812"
     height="79.956139" />
  <rect
     x="1279.6165"
     y="494.27304"
     style="fill:#f0e68c;fill-opacity:0;stroke:#000000;stroke-width:2.04399991;stroke-miterlimit:4;stroke-dasharray:8.17599964, 8.17599964;stroke-dashoffset:0"
     id="e1_rectangle-6-2-0-6-36"
     width="37.146812"
     height="79.956139" />
  <rect
     x="1316.7632"
     y="494.27304"
     style="fill:#f0e68c;fill-opacity:0;stroke:#000000;stroke-width:2.04399991;stroke-miterlimit:4;stroke-dasharray:8.17599964, 8.17599964;stroke-dashoffset:0"
     id="e1_rectangle-7-9-9-2-1"
     width="37.146812"
     height="79.956139" />
  <rect
     x="1353.91"
     y="494.27307"
     style="fill:#f0e68c;fill-opacity:0;stroke:#000000;stroke-width:2.04399991;stroke-miterlimit:4;stroke-dasharray:8.17599964, 8.17599964;stroke-dashoffset:0"
     id="e1_rectangle-7-9-9-2-1-0"
     width="37.146812"
     height="79.956139" />
  <text
     xml:space="preserve"
     style="font-style:normal;font-variant:normal;font-weight:normal;font-stretch:normal;font-size:40px;line-height:1.25;font-family:'Comic Sans MS';-inkscape-font-specification:'Comic Sans MS';letter-spacing:0px;word-spacing:0px;fill:#000000;fill-opacity:1;stroke:none"
     x="106.35016"
     y="549.0896"
     id="text4876-6"><tspan
       sodipodi:role="line"
       id="tspan4874-3"
       x="106.35016"
       y="549.0896">level 0: 10</tspan></text>
  <flowRoot
     xml:space="preserve"
     id="flowRoot8697"
     style="font-style:normal;font-weight:normal;font-size:40px;line-height:1.25;font-family:sans-serif;letter-spacing:0px;word-spacing:0px;fill:#000000;fill-opacity:1;stroke:none"
     transform="translate(234.29535,63.73832)"><flowRegion
       id="flowRegion8699"><rect
         id="rect8701"
         width="1383.5773"
         height="665.38446"
         x="-101.39192"
         y="-14.340484" /></flowRegion><flowPara
       id="flowPara8703"></flowPara></flowRoot>  <text
     xml:space="preserve"
     style="font-style:normal;font-variant:normal;font-weight:normal;font-stretch:normal;font-size:40px;line-height:1.25;font-family:'Comic Sans MS';-inkscape-font-specification:'Comic Sans MS';letter-spacing:0px;word-spacing:0px;fill:#000000;fill-opacity:1;stroke:none"
     x="78.535156"
     y="111.13281"
     id="text4876-2"><tspan
       sodipodi:role="line"
       id="tspan4874-0"
       x="78.535156"
       y="111.13281">Index 18: 010010</tspan></text>
</svg>
